<svg width="189" height="35" viewBox="0 0 189 35" fill="none" xmlns="http://www.w3.org/2000/svg">
<circle cx="17.0111" cy="17.5001" r="17.0111" fill="#E06D10"/>
<path d="M31.0234 26H21.1562V8.86719H31.0234V11.8438H24.7891V15.6055H30.5898V18.582H24.7891V23H31.0234V26ZM40.1953 12.6289C41.9531 12.6289 43.3008 13.0117 44.2383 13.7773C45.1758 14.543 45.6445 15.707 45.6445 17.2695V26H43.1484L42.457 24.2188H42.3633C41.9883 24.6875 41.6055 25.0703 41.2148 25.3672C40.8242 25.6641 40.375 25.8828 39.8672 26.0234C39.3594 26.1641 38.7422 26.2344 38.0156 26.2344C37.2422 26.2344 36.5469 26.0859 35.9297 25.7891C35.3203 25.4922 34.8398 25.0391 34.4883 24.4297C34.1367 23.8125 33.9609 23.0312 33.9609 22.0859C33.9609 20.6953 34.4492 19.6719 35.4258 19.0156C36.4023 18.3516 37.8672 17.9844 39.8203 17.9141L42.0938 17.8438V17.2695C42.0938 16.582 41.9141 16.0781 41.5547 15.7578C41.1953 15.4375 40.6953 15.2773 40.0547 15.2773C39.4219 15.2773 38.8008 15.3672 38.1914 15.5469C37.582 15.7266 36.9727 15.9531 36.3633 16.2266L35.1797 13.8125C35.875 13.4453 36.6523 13.1562 37.5117 12.9453C38.3789 12.7344 39.2734 12.6289 40.1953 12.6289ZM42.0938 19.9297L40.7109 19.9766C39.5547 20.0078 38.75 20.2148 38.2969 20.5977C37.8516 20.9805 37.6289 21.4844 37.6289 22.1094C37.6289 22.6562 37.7891 23.0469 38.1094 23.2812C38.4297 23.5078 38.8477 23.6211 39.3633 23.6211C40.1289 23.6211 40.7734 23.3945 41.2969 22.9414C41.8281 22.4883 42.0938 21.8438 42.0938 21.0078V19.9297ZM58.9766 22.1094C58.9766 23 58.7656 23.7539 58.3438 24.3711C57.9297 24.9805 57.3086 25.4453 56.4805 25.7656C55.6523 26.0781 54.6211 26.2344 53.3867 26.2344C52.4727 26.2344 51.6875 26.1758 51.0312 26.0586C50.3828 25.9414 49.7266 25.7461 49.0625 25.4727V22.5195C49.7734 22.8398 50.5352 23.1055 51.3477 23.3164C52.168 23.5195 52.8867 23.6211 53.5039 23.6211C54.1992 23.6211 54.6953 23.5195 54.9922 23.3164C55.2969 23.1055 55.4492 22.832 55.4492 22.4961C55.4492 22.2773 55.3867 22.082 55.2617 21.9102C55.1445 21.7305 54.8867 21.5312 54.4883 21.3125C54.0898 21.0859 53.4648 20.793 52.6133 20.4336C51.793 20.0898 51.1172 19.7422 50.5859 19.3906C50.0625 19.0391 49.6719 18.625 49.4141 18.1484C49.1641 17.6641 49.0391 17.0508 49.0391 16.3086C49.0391 15.0977 49.5078 14.1875 50.4453 13.5781C51.3906 12.9609 52.6523 12.6523 54.2305 12.6523C55.043 12.6523 55.8164 12.7344 56.5508 12.8984C57.293 13.0625 58.0547 13.3242 58.8359 13.6836L57.7578 16.2617C57.1094 15.9805 56.4961 15.75 55.918 15.5703C55.3477 15.3906 54.7656 15.3008 54.1719 15.3008C53.6484 15.3008 53.2539 15.3711 52.9883 15.5117C52.7227 15.6523 52.5898 15.8672 52.5898 16.1562C52.5898 16.3672 52.6562 16.5547 52.7891 16.7188C52.9297 16.8828 53.1953 17.0664 53.5859 17.2695C53.9844 17.4648 54.5664 17.7188 55.332 18.0312C56.0742 18.3359 56.7188 18.6562 57.2656 18.9922C57.8125 19.3203 58.2344 19.7305 58.5312 20.2227C58.8281 20.707 58.9766 21.3359 58.9766 22.1094ZM60.3906 12.8984H64.3047L66.7773 20.2695C66.8555 20.5039 66.9219 20.7422 66.9766 20.9844C67.0312 21.2266 67.0781 21.4766 67.1172 21.7344C67.1562 21.9922 67.1875 22.2617 67.2109 22.543H67.2812C67.3281 22.1211 67.3906 21.7266 67.4688 21.3594C67.5547 20.9922 67.6602 20.6289 67.7852 20.2695L70.2109 12.8984H74.043L68.5 27.6758C68.1641 28.582 67.7266 29.3359 67.1875 29.9375C66.6484 30.5469 66.0273 31.0039 65.3242 31.3086C64.6289 31.6133 63.8633 31.7656 63.0273 31.7656C62.6211 31.7656 62.2695 31.7422 61.9727 31.6953C61.6758 31.6562 61.4219 31.6133 61.2109 31.5664V28.7305C61.375 28.7695 61.582 28.8047 61.832 28.8359C62.082 28.8672 62.3438 28.8828 62.6172 28.8828C63.1172 28.8828 63.5469 28.7773 63.9062 28.5664C64.2656 28.3555 64.5664 28.0703 64.8086 27.7109C65.0508 27.3594 65.2422 26.9727 65.3828 26.5508L65.5938 25.9062L60.3906 12.8984Z" fill="white"/>
<path d="M80.3477 27H78.3555V9.86719H87.9062V11.6367H80.3477V17.9062H87.4492V19.6758H80.3477V27ZM92.9062 27H90.9609V14.1562H92.9062V27ZM90.7969 10.6758C90.7969 10.2305 90.9062 9.90625 91.125 9.70312C91.3438 9.49219 91.6172 9.38672 91.9453 9.38672C92.2578 9.38672 92.5273 9.49219 92.7539 9.70312C92.9805 9.91406 93.0938 10.2383 93.0938 10.6758C93.0938 11.1133 92.9805 11.4414 92.7539 11.6602C92.5273 11.8711 92.2578 11.9766 91.9453 11.9766C91.6172 11.9766 91.3438 11.8711 91.125 11.6602C90.9062 11.4414 90.7969 11.1133 90.7969 10.6758ZM106.32 27V18.6914C106.32 17.6445 106.082 16.8633 105.605 16.3477C105.129 15.832 104.383 15.5742 103.367 15.5742C102.023 15.5742 101.039 15.9375 100.414 16.6641C99.7891 17.3906 99.4766 18.5898 99.4766 20.2617V27H97.5312V14.1562H99.1133L99.4297 15.9141H99.5234C99.9219 15.2812 100.48 14.793 101.199 14.4492C101.918 14.0977 102.719 13.9219 103.602 13.9219C105.148 13.9219 106.312 14.2969 107.094 15.0469C107.875 15.7891 108.266 16.9805 108.266 18.6211V27H106.32ZM120.672 27L120.285 25.1719H120.191C119.551 25.9766 118.91 26.5234 118.27 26.8125C117.637 27.0938 116.844 27.2344 115.891 27.2344C114.617 27.2344 113.617 26.9062 112.891 26.25C112.172 25.5938 111.812 24.6602 111.812 23.4492C111.812 20.8555 113.887 19.4961 118.035 19.3711L120.215 19.3008V18.5039C120.215 17.4961 119.996 16.7539 119.559 16.2773C119.129 15.793 118.438 15.5508 117.484 15.5508C116.414 15.5508 115.203 15.8789 113.852 16.5352L113.254 15.0469C113.887 14.7031 114.578 14.4336 115.328 14.2383C116.086 14.043 116.844 13.9453 117.602 13.9453C119.133 13.9453 120.266 14.2852 121 14.9648C121.742 15.6445 122.113 16.7344 122.113 18.2344V27H120.672ZM116.277 25.6289C117.488 25.6289 118.438 25.2969 119.125 24.6328C119.82 23.9688 120.168 23.0391 120.168 21.8438V20.6836L118.223 20.7656C116.676 20.8203 115.559 21.0625 114.871 21.4922C114.191 21.9141 113.852 22.5742 113.852 23.4727C113.852 24.1758 114.062 24.7109 114.484 25.0781C114.914 25.4453 115.512 25.6289 116.277 25.6289ZM135.422 27V18.6914C135.422 17.6445 135.184 16.8633 134.707 16.3477C134.23 15.832 133.484 15.5742 132.469 15.5742C131.125 15.5742 130.141 15.9375 129.516 16.6641C128.891 17.3906 128.578 18.5898 128.578 20.2617V27H126.633V14.1562H128.215L128.531 15.9141H128.625C129.023 15.2812 129.582 14.793 130.301 14.4492C131.02 14.0977 131.82 13.9219 132.703 13.9219C134.25 13.9219 135.414 14.2969 136.195 15.0469C136.977 15.7891 137.367 16.9805 137.367 18.6211V27H135.422ZM147.008 27.2344C145.148 27.2344 143.707 26.6641 142.684 25.5234C141.668 24.375 141.16 22.7539 141.16 20.6602C141.16 18.5117 141.676 16.8516 142.707 15.6797C143.746 14.5078 145.223 13.9219 147.137 13.9219C147.754 13.9219 148.371 13.9883 148.988 14.1211C149.605 14.2539 150.09 14.4102 150.441 14.5898L149.844 16.2422C149.414 16.0703 148.945 15.9297 148.438 15.8203C147.93 15.7031 147.48 15.6445 147.09 15.6445C144.48 15.6445 143.176 17.3086 143.176 20.6367C143.176 22.2148 143.492 23.4258 144.125 24.2695C144.766 25.1133 145.711 25.5352 146.961 25.5352C148.031 25.5352 149.129 25.3047 150.254 24.8438V26.5664C149.395 27.0117 148.312 27.2344 147.008 27.2344ZM159.238 27.2344C157.34 27.2344 155.84 26.6562 154.738 25.5C153.645 24.3438 153.098 22.7383 153.098 20.6836C153.098 18.6133 153.605 16.9688 154.621 15.75C155.645 14.5312 157.016 13.9219 158.734 13.9219C160.344 13.9219 161.617 14.4531 162.555 15.5156C163.492 16.5703 163.961 17.9648 163.961 19.6992V20.9297H155.113C155.152 22.4375 155.531 23.582 156.25 24.3633C156.977 25.1445 157.996 25.5352 159.309 25.5352C160.691 25.5352 162.059 25.2461 163.41 24.668V26.4023C162.723 26.6992 162.07 26.9102 161.453 27.0352C160.844 27.168 160.105 27.2344 159.238 27.2344ZM158.711 15.5508C157.68 15.5508 156.855 15.8867 156.238 16.5586C155.629 17.2305 155.27 18.1602 155.16 19.3477H161.875C161.875 18.1211 161.602 17.1836 161.055 16.5352C160.508 15.8789 159.727 15.5508 158.711 15.5508Z" fill="white"/>
</svg>
